ffmpeg version 3.4.8-0ubuntu0.2 Copyright (c) 2000-2020 the FFmpeg developers
  built with gcc 7 (Ubuntu 7.5.0-3ubuntu1~18.04)
  configuration: --prefix=/usr --extra-version=0ubuntu0.2 --toolchain=hardened --libdir=/usr/lib/x86_64-linux-gnu --incdir=/usr/include/x86_64-linux-gnu --enable-gpl --disable-stripping --enable-avresample --enable-avisynth --enable-gnutls --enable-ladspa --enable-libass --enable-libbluray --enable-libbs2b --enable-libcaca --enable-libcdio --enable-libflite --enable-libfontconfig --enable-libfreetype --enable-libfribidi --enable-libgme --enable-libgsm --enable-libmp3lame --enable-libmysofa --enable-libopenjpeg --enable-libopenmpt --enable-libopus --enable-libpulse --enable-librubberband --enable-librsvg --enable-libshine --enable-libsnappy --enable-libsoxr --enable-libspeex --enable-libssh --enable-libtheora --enable-libtwolame --enable-libvorbis --enable-libvpx --enable-libwavpack --enable-libwebp --enable-libx265 --enable-libxml2 --enable-libxvid --enable-libzmq --enable-libzvbi --enable-omx --enable-openal --enable-opengl --enable-sdl2 --enable-libdc1394 --enable-libdrm --enable-libiec61883 --enable-chromaprint --enable-frei0r --enable-libopencv --enable-libx264 --enable-shared
  libavutil      55. 78.100 / 55. 78.100
  libavcodec     57.107.100 / 57.107.100
  libavformat    57. 83.100 / 57. 83.100
  libavdevice    57. 10.100 / 57. 10.100
  libavfilter     6.107.100 /  6.107.100
  libavresample   3.  7.  0 /  3.  7.  0
  libswscale      4.  8.100 /  4.  8.100
  libswresample   2.  9.100 /  2.  9.100
  libpostproc    54.  7.100 / 54.  7.100
[rawvideo @ 0x55e158fcca20] Estimating duration from bitrate, this may be inaccurate
Input #0, rawvideo, from '../../SVC-Encoder-20220109T061506Z-001/SVC-Encoder/Dataset/RollerCoaster/ERP_8x8/tile_yuv/Tile_37_480x240.yuv':
  Duration: 00:00:10.00, start: 0.000000, bitrate: 41472 kb/s
    Stream #0:0: Video: rawvideo (I420 / 0x30323449), yuv420p, 480x240, 41472 kb/s, 30 tbr, 30 tbn, 30 tbc
Stream mapping:
  Stream #0:0 -> #0:0 (rawvideo (native) -> h264 (libx264))
Press [q] to stop, [?] for help
[libx264 @ 0x55e158fd9c60] using cpu capabilities: MMX2 SSE2Fast LZCNT SSSE3 SSE4.2 AVX
[libx264 @ 0x55e158fd9c60] profile High, level 2.1
Output #0, rawvideo, to 'RollerCoaster_Tile_37_480x240_x264_QP_36.h264':
  Metadata:
    encoder         : Lavf57.83.100
    Stream #0:0: Video: h264 (libx264), yuv420p, 480x240, q=-1--1, 30 fps, 30 tbn, 30 tbc
    Metadata:
      encoder         : Lavc57.107.100 libx264
    Side data:
      cpb: bitrate max/min/avg: 0/0/0 buffer size: 0 vbv_delay: -1
frame=  194 fps=0.0 q=42.0 PSNR=Y:nan U:nan V:nan *:nan size=      35kB time=00:00:05.03 bitrate=  56.7kbits/s speed=  10x    frame=  300 fps=0.0 q=42.0 LPSNR=Y:inf U:inf V:inf *:inf size=      66kB time=00:00:09.93 bitrate=  54.2kbits/s speed=12.2x    
video:66kB audio:0kB subtitle:0kB other streams:0kB global headers:0kB muxing overhead: 0.000000%
[libx264 @ 0x55e158fd9c60] frame I:2     Avg QP:33.74  size:  5710  PSNR Mean Y:33.53 U:44.42 V:47.62 Avg:35.16 Global:35.07
[libx264 @ 0x55e158fd9c60] frame P:76    Avg QP:36.17  size:   478  PSNR Mean Y:31.96 U:43.72 V:46.17 Avg:33.60 Global:33.58
[libx264 @ 0x55e158fd9c60] frame B:222   Avg QP:41.63  size:    88  PSNR Mean Y:31.73 U:43.80 V:46.31 Avg:33.38 Global:33.37
[libx264 @ 0x55e158fd9c60] consecutive B-frames:  1.3%  0.0%  0.0% 98.7%
[libx264 @ 0x55e158fd9c60] mb I  I16..4: 22.9% 74.3%  2.8%
[libx264 @ 0x55e158fd9c60] mb P  I16..4:  0.2%  1.0%  0.2%  P16..4: 36.5%  1.9%  0.3%  0.0%  0.0%    skip:60.0%
[libx264 @ 0x55e158fd9c60] mb B  I16..4:  0.0%  0.0%  0.0%  B16..8: 12.2%  0.4%  0.1%  direct: 0.0%  skip:87.3%  L0:35.7% L1:64.1% BI: 0.1%
[libx264 @ 0x55e158fd9c60] 8x8 transform intra:72.4% inter:84.6%
[libx264 @ 0x55e158fd9c60] coded y,uvDC,uvAC intra: 62.6% 45.4% 18.0% inter: 1.8% 0.6% 0.0%
[libx264 @ 0x55e158fd9c60] i16 v,h,dc,p: 15% 27% 41% 17%
[libx264 @ 0x55e158fd9c60] i8 v,h,dc,ddl,ddr,vr,hd,vl,hu:  6%  9% 34%  7%  8% 16%  6%  5% 11%
[libx264 @ 0x55e158fd9c60] i4 v,h,dc,ddl,ddr,vr,hd,vl,hu:  8%  4% 41%  4% 12% 24%  3%  2%  4%
[libx264 @ 0x55e158fd9c60] i8c dc,h,v,p: 76% 13%  8%  3%
[libx264 @ 0x55e158fd9c60] Weighted P-Frames: Y:1.3% UV:0.0%
[libx264 @ 0x55e158fd9c60] ref P L0: 63.8% 20.4% 10.2%  5.6%  0.0%
[libx264 @ 0x55e158fd9c60] ref B L0: 83.0% 14.7%  2.2%
[libx264 @ 0x55e158fd9c60] ref B L1: 81.9% 18.1%
[libx264 @ 0x55e158fd9c60] PSNR Mean Y:31.799 U:43.783 V:46.283 Avg:33.451 Global:33.430 kb/s:53.83
